<svg xmlns="http://www.w3.org/2000/svg" xmlns:xlink="http://www.w3.org/1999/xlink" version="1.1" x="0px" y="0px" viewBox="0 0 100 125" enable-background="new 0 0 100 100" xml:space="preserve"><path fill="white" d="M93.757,86.834l-8.05-7.788c5.424-7.472,4.518-17.918-2.128-24.348c-3.496-3.385-8.102-5.249-12.967-5.249  c-5.099,0-9.858,2.018-13.403,5.682c-3.466,3.579-5.327,8.295-5.246,13.276c0.083,4.981,2.098,9.633,5.68,13.096  c3.498,3.384,8.102,5.248,12.967,5.248c3.96,0,7.728-1.217,10.906-3.518l8.122,7.857c0.561,0.544,1.297,0.842,2.075,0.842  c0.809,0,1.564-0.319,2.125-0.896C94.974,89.861,94.938,87.976,93.757,86.834z M70.612,53.304c3.859,0,7.513,1.478,10.289,4.162  c5.863,5.674,6.019,15.062,0.345,20.924c-2.814,2.907-6.59,4.507-10.636,4.507c-3.859,0-7.513-1.478-10.289-4.162  c-2.839-2.748-4.44-6.438-4.504-10.392c-0.065-3.95,1.412-7.69,4.16-10.533C62.79,54.905,66.566,53.304,70.612,53.304z"/><path fill="white" d="M43.555,61.717c0.044,0.008,0.086,0.013,0.133,0.019l3.648,0.337c0.025,0.002,0.053,0.006,0.078,0.006h0.003  c0.5,0,1.006-0.456,1.175-1.06l0.992-3.522c0.181-0.642-0.05-1.325-0.525-1.55l-3.29-1.618c-0.033-0.014-0.064-0.028-0.094-0.041  l-0.025-0.012c-0.105-1.062-0.369-2.106-0.79-3.104c0.031-0.036,0.062-0.075,0.089-0.113l2.117-2.999  c0.303-0.434,0.178-1.144-0.289-1.622L44.213,43.8c-0.297-0.3-0.7-0.479-1.078-0.479c-0.203,0-0.389,0.052-0.537,0.152l-3.042,2.048  c-0.042,0.024-0.083,0.056-0.125,0.092c-0.461-0.209-0.959-0.389-1.478-0.536c-0.52-0.147-1.036-0.251-1.542-0.313  c-0.017-0.051-0.037-0.104-0.062-0.156l-1.534-3.332c-0.169-0.371-0.614-0.61-1.136-0.61c-0.136,0-0.272,0.017-0.406,0.05  l-3.568,0.914c-0.647,0.167-1.125,0.709-1.088,1.234l0.242,3.664c0.002,0.047,0.01,0.1,0.022,0.155  c-0.856,0.613-1.614,1.354-2.262,2.201c-0.044-0.012-0.094-0.02-0.149-0.024l-3.648-0.335c-0.528-0.047-1.081,0.426-1.259,1.064  l-0.997,3.546c-0.181,0.645,0.047,1.333,0.522,1.564l3.284,1.614c0.047,0.025,0.089,0.041,0.131,0.056  c0.103,1.058,0.364,2.098,0.783,3.084c-0.031,0.036-0.061,0.072-0.094,0.116l-2.118,2.993c-0.305,0.43-0.181,1.142,0.281,1.616  l2.551,2.618c0.289,0.3,0.687,0.478,1.067,0.478c0.203,0,0.389-0.053,0.536-0.152l3.045-2.052c0.033-0.021,0.067-0.05,0.1-0.074  c0.483,0.225,1.003,0.414,1.542,0.566c0.508,0.142,1.036,0.248,1.57,0.317c0.014,0.033,0.028,0.069,0.044,0.114l1.531,3.334  c0.169,0.369,0.617,0.611,1.133,0.611c0.137,0,0.272-0.017,0.403-0.051l3.542-0.905c0.642-0.167,1.12-0.709,1.083-1.231l-0.25-3.665  c-0.002-0.038-0.005-0.077-0.013-0.113C42.126,63.34,42.904,62.582,43.555,61.717z M39.979,56.843  c-0.639,2.273-2.729,3.859-5.079,3.859c-0.48,0-0.961-0.066-1.428-0.2c-1.359-0.381-2.484-1.267-3.173-2.497  c-0.689-1.231-0.858-2.657-0.478-4.017c0.639-2.271,2.729-3.861,5.085-3.861c0.478,0,0.958,0.067,1.425,0.2  c1.358,0.381,2.484,1.268,3.173,2.498C40.192,54.056,40.359,55.484,39.979,56.843z"/><path fill="white" d="M35.894,52.407c-0.27-0.075-0.544-0.114-0.823-0.114c-1.347,0-2.542,0.908-2.909,2.208c-0.45,1.606,0.487,3.281,2.093,3.732  c0.267,0.075,0.542,0.114,0.816,0.114c0.003,0,0.003,0,0.003,0c1.348,0,2.545-0.909,2.91-2.21  C38.437,54.532,37.497,52.856,35.894,52.407z"/><path fill="white" d="M31.354,29.108c-0.022-0.003-0.047-0.005-0.07-0.009l-2.097-0.191c-0.319-0.03-0.65,0.253-0.756,0.631l-0.575,2.04  c-0.108,0.386,0.03,0.797,0.316,0.937l1.887,0.926c0.022,0.01,0.042,0.021,0.062,0.026c0.061,0.601,0.211,1.189,0.445,1.747  c-0.014,0.018-0.028,0.037-0.045,0.057l-1.217,1.723c-0.184,0.259-0.112,0.683,0.164,0.966l1.467,1.504  c0.172,0.179,0.409,0.286,0.637,0.286c0.122,0,0.233-0.033,0.325-0.094l1.75-1.179c0.014-0.011,0.031-0.022,0.045-0.033  c0.278,0.129,0.572,0.233,0.875,0.319c0.286,0.081,0.586,0.143,0.889,0.181c0.003,0.009,0.008,0.017,0.011,0.025l0.89,1.942  c0.102,0.225,0.372,0.369,0.68,0.369c0.081,0,0.161-0.008,0.239-0.028l2.036-0.521c0.384-0.097,0.667-0.423,0.646-0.739  l-0.142-2.106c-0.003-0.017-0.003-0.033-0.005-0.049c0.5-0.361,0.942-0.79,1.312-1.279c0.02,0.003,0.039,0.006,0.061,0.006  l2.098,0.194c0.017,0.003,0.034,0.003,0.047,0.003c0.303,0,0.605-0.269,0.706-0.631l0.569-2.024c0.109-0.385-0.03-0.79-0.316-0.926  l-1.892-0.932c-0.017-0.008-0.031-0.014-0.047-0.021H42.34c-0.061-0.606-0.214-1.198-0.45-1.762c0.017-0.018,0.03-0.036,0.045-0.053  l1.216-1.727c0.184-0.261,0.109-0.685-0.169-0.97l-1.475-1.517c-0.175-0.181-0.414-0.286-0.639-0.286  c-0.123,0-0.236,0.033-0.328,0.095l-1.748,1.175c-0.023,0.015-0.042,0.028-0.062,0.045c-0.264-0.119-0.544-0.222-0.839-0.303  c-0.292-0.083-0.586-0.143-0.873-0.178c-0.008-0.024-0.016-0.05-0.028-0.075l-0.883-1.917c-0.103-0.225-0.369-0.37-0.68-0.37  c-0.081,0-0.162,0.012-0.242,0.031l-2.051,0.525c-0.386,0.099-0.669,0.425-0.647,0.741l0.136,2.106  c0.003,0.024,0.008,0.05,0.011,0.075C32.151,28.214,31.721,28.63,31.354,29.108z M33.238,32.086  c0.364-1.295,1.553-2.197,2.892-2.197c0.275,0,0.547,0.038,0.814,0.11c0.773,0.221,1.415,0.726,1.806,1.426  c0.392,0.7,0.49,1.515,0.27,2.29c-0.361,1.292-1.55,2.195-2.893,2.195c-0.272,0-0.548-0.039-0.811-0.111  C33.721,35.349,32.788,33.684,33.238,32.086z"/><path fill="white" d="M35.75,34.548c0.156,0.045,0.317,0.066,0.481,0.066c0.786,0,1.487-0.53,1.7-1.291c0.128-0.456,0.072-0.935-0.158-1.349  c-0.231-0.41-0.608-0.708-1.064-0.836c-0.156-0.045-0.317-0.066-0.478-0.066c-0.789,0-1.489,0.53-1.704,1.291  C34.263,33.306,34.811,34.285,35.75,34.548z"/>
</svg>